<?xml version="1.0" encoding="utf-8"?>
<!-- Generator: Adobe Illustrator 16.0.3, SVG Export Plug-In . SVG Version: 6.00 Build 0)  -->
<!DOCTYPE svg PUBLIC "-//W3C//DTD SVG 1.1//EN" "http://www.w3.org/Graphics/SVG/1.1/DTD/svg11.dtd">
<svg version="1.1" id="Capa_1" xmlns="http://www.w3.org/2000/svg" xmlns:xlink="http://www.w3.org/1999/xlink" x="0px" y="0px"
	 width="150px" height="50px" viewBox="0 0 150 50" enable-background="new 0 0 150 50" xml:space="preserve">
<g enable-background="new    ">
	<path fill="#020304" d="M3.092,16.15c0-0.075,0.023-0.138,0.069-0.191c0.046-0.052,0.101-0.079,0.167-0.079h2.023
		c0.065,0,0.125,0.026,0.177,0.079c0.052,0.053,0.079,0.116,0.079,0.191v10.578L12.66,16.24c0.17-0.239,0.386-0.359,0.648-0.359
		h1.866c0.066,0,0.121,0.026,0.167,0.079c0.045,0.053,0.068,0.116,0.068,0.191v10.578l7.073-10.489
		c0.17-0.239,0.386-0.359,0.648-0.359h2.495c0.079,0,0.134,0.038,0.167,0.112c0.033,0.075,0.023,0.142-0.03,0.202L15.666,31.213
		c-0.17,0.238-0.387,0.359-0.648,0.359h-1.867c-0.157,0-0.236-0.092-0.236-0.27V20.722L5.843,31.213
		c-0.17,0.238-0.387,0.359-0.648,0.359H3.328c-0.066,0-0.121-0.027-0.167-0.08s-0.069-0.115-0.069-0.189V16.15z"/>
	<path fill="#020304" d="M27.335,16.195c0-0.075,0.023-0.138,0.069-0.19c0.045-0.052,0.101-0.078,0.167-0.078h8.487
		c0.157,0,0.236,0.089,0.236,0.269v2.309c0,0.18-0.079,0.27-0.236,0.27H29.85v3.586h4.912c0.157,0,0.236,0.09,0.236,0.269v2.287
		c0,0.193-0.079,0.291-0.236,0.291H29.85v3.564h6.817c0.079,0,0.134,0.037,0.167,0.111c0.032,0.076,0.022,0.143-0.029,0.203
		l-1.454,2.174c-0.17,0.238-0.387,0.357-0.648,0.357h-7.131c-0.066,0-0.122-0.025-0.167-0.078c-0.046-0.053-0.069-0.115-0.069-0.189
		V16.195z"/>
	<path fill="#020304" d="M38.966,15.926h2.023c0.17,0,0.255,0.089,0.255,0.269v15.153c0,0.178-0.084,0.268-0.255,0.268h-2.023
		c-0.066,0-0.121-0.025-0.167-0.078c-0.046-0.053-0.069-0.115-0.069-0.189V16.195c0-0.075,0.023-0.138,0.069-0.19
		C38.845,15.953,38.899,15.926,38.966,15.926z"/>
	<path fill="#020304" d="M44.073,16.15c0-0.075,0.023-0.138,0.069-0.191c0.045-0.052,0.102-0.079,0.167-0.079h10.373
		c0.066,0,0.121,0.026,0.167,0.079c0.045,0.053,0.069,0.116,0.069,0.191v3.294c0,0.21-0.06,0.396-0.178,0.561l-3.104,4.64
		l4.44,6.613c0.039,0.074,0.043,0.145,0.01,0.213c-0.033,0.066-0.083,0.102-0.148,0.102h-2.495c-0.261,0-0.478-0.121-0.648-0.359
		l-4.302-6.389c-0.092-0.118-0.092-0.23,0-0.335l3.871-5.761h-5.776v12.575c0,0.178-0.086,0.27-0.256,0.27H44.31
		c-0.066,0-0.122-0.027-0.167-0.08s-0.069-0.115-0.069-0.189V16.15z"/>
	<path fill="#020304" d="M57.688,16.195c0-0.075,0.022-0.138,0.069-0.19c0.045-0.052,0.102-0.078,0.167-0.078h4.381
		c0.943,0,1.828,0.202,2.652,0.604c0.825,0.403,1.545,0.953,2.161,1.647c0.616,0.695,1.11,1.51,1.483,2.443
		c0.374,0.934,0.566,1.932,0.58,2.992c0.026,1.105-0.147,2.145-0.521,3.115c-0.374,0.973-0.881,1.82-1.522,2.545
		c-0.643,0.725-1.393,1.297-2.25,1.715c-0.858,0.418-1.771,0.627-2.741,0.627h-4.224c-0.065,0-0.121-0.025-0.167-0.078
		c-0.046-0.053-0.069-0.115-0.069-0.189V16.195z M60.203,28.77h2.102c0.603,0,1.169-0.131,1.699-0.393
		c0.531-0.26,0.995-0.619,1.395-1.076c0.4-0.455,0.713-0.984,0.943-1.591c0.229-0.604,0.344-1.251,0.344-1.938
		s-0.115-1.334-0.344-1.938c-0.229-0.605-0.543-1.136-0.943-1.592s-0.864-0.814-1.395-1.076c-0.53-0.261-1.097-0.392-1.699-0.392
		h-2.102V28.77z"/>
	<path fill="#020304" d="M68.788,31.303l10.098-15.019c0.171-0.238,0.387-0.358,0.648-0.358h2.495c0.078,0,0.135,0.038,0.167,0.112
		c0.032,0.075,0.023,0.149-0.029,0.225L72.069,31.258c-0.157,0.254-0.374,0.381-0.648,0.381h-2.495
		c-0.066,0-0.118-0.037-0.157-0.113C68.729,31.451,68.736,31.377,68.788,31.303z"/>
	<path fill="#020304" d="M83.365,20.521c0-0.702,0.127-1.353,0.383-1.95c0.255-0.597,0.603-1.112,1.042-1.547
		c0.438-0.434,0.949-0.776,1.532-1.031c0.583-0.253,1.201-0.381,1.855-0.381c1.022,0,1.91,0.206,2.663,0.616
		s1.318,0.885,1.699,1.423c0.091,0.135,0.086,0.254-0.02,0.358l-1.356,1.614c-0.052,0.06-0.114,0.09-0.186,0.09
		c-0.072,0-0.135-0.038-0.187-0.112c-0.118-0.149-0.266-0.299-0.442-0.448s-0.38-0.288-0.609-0.415s-0.475-0.228-0.736-0.303
		c-0.262-0.074-0.531-0.111-0.806-0.111c-0.328,0-0.626,0.056-0.895,0.167c-0.268,0.112-0.493,0.259-0.677,0.438
		c-0.185,0.18-0.327,0.389-0.433,0.628s-0.157,0.493-0.157,0.762c0,0.434,0.125,0.807,0.373,1.121
		c0.249,0.313,0.622,0.531,1.12,0.65l1.926,0.426c0.629,0.134,1.181,0.347,1.66,0.639c0.478,0.291,0.877,0.639,1.198,1.042
		c0.32,0.403,0.566,0.856,0.736,1.355c0.17,0.502,0.256,1.028,0.256,1.581c0,0.598-0.108,1.188-0.325,1.771
		c-0.216,0.582-0.536,1.105-0.962,1.568s-0.946,0.834-1.562,1.109c-0.616,0.277-1.324,0.416-2.123,0.416
		c-0.563,0-1.09-0.068-1.581-0.203c-0.49-0.133-0.937-0.311-1.336-0.525c-0.399-0.219-0.75-0.457-1.051-0.719
		c-0.302-0.26-0.55-0.52-0.746-0.773c-0.092-0.104-0.092-0.225,0-0.357l1.237-1.816c0.039-0.074,0.095-0.115,0.167-0.123
		c0.071-0.008,0.134,0.02,0.187,0.078c0.184,0.195,0.387,0.393,0.608,0.594c0.224,0.203,0.465,0.385,0.728,0.549
		c0.263,0.166,0.543,0.301,0.845,0.404c0.301,0.104,0.622,0.156,0.962,0.156c0.721,0,1.271-0.178,1.651-0.537
		c0.379-0.359,0.57-0.822,0.57-1.389c0-0.449-0.142-0.842-0.424-1.178c-0.28-0.336-0.696-0.564-1.247-0.684l-1.925-0.448
		c-1.101-0.254-1.979-0.77-2.633-1.546C83.692,22.703,83.365,21.716,83.365,20.521z"/>
	<path fill="#020304" d="M94.622,16.15c0-0.075,0.022-0.138,0.069-0.191c0.045-0.052,0.102-0.079,0.166-0.079h8.526
		c0.263,0,0.479,0.12,0.649,0.359l1.454,2.174c0.052,0.075,0.061,0.146,0.028,0.213c-0.032,0.067-0.088,0.102-0.166,0.102h-4.382
		v12.575c0,0.178-0.078,0.27-0.235,0.27h-2.023c-0.157,0-0.236-0.092-0.236-0.27V18.728h-3.615c-0.064,0-0.121-0.026-0.166-0.079
		c-0.047-0.052-0.069-0.114-0.069-0.189V16.15z"/>
	<path fill="#020304" d="M106.508,23.704c0-1.15,0.187-2.223,0.561-3.217c0.373-0.993,0.877-1.852,1.512-2.577
		c0.636-0.725,1.386-1.293,2.25-1.704s1.794-0.609,2.79-0.594c0.995,0.015,1.925,0.239,2.789,0.672
		c0.865,0.434,1.614,1.024,2.25,1.772c0.635,0.747,1.137,1.617,1.503,2.61c0.366,0.994,0.543,2.051,0.531,3.172
		c-0.015,1.136-0.211,2.197-0.59,3.183c-0.381,0.986-0.894,1.846-1.543,2.578c-0.648,0.732-1.404,1.303-2.269,1.715
		c-0.865,0.41-1.795,0.615-2.79,0.615c-0.982,0-1.903-0.213-2.761-0.639c-0.858-0.426-1.602-1.01-2.229-1.748
		c-0.629-0.74-1.12-1.609-1.475-2.611C106.685,25.93,106.508,24.854,106.508,23.704z M109.022,23.816
		c0,0.732,0.124,1.427,0.373,2.084c0.25,0.659,0.583,1.233,1.002,1.727c0.42,0.492,0.904,0.881,1.455,1.166
		c0.549,0.283,1.139,0.426,1.768,0.426c0.614-0.016,1.198-0.174,1.748-0.473s1.032-0.697,1.444-1.199
		c0.412-0.5,0.737-1.082,0.973-1.748c0.235-0.664,0.347-1.363,0.333-2.096c0-0.732-0.124-1.427-0.372-2.085
		c-0.25-0.657-0.584-1.228-1.002-1.714c-0.42-0.485-0.908-0.871-1.464-1.154c-0.558-0.284-1.144-0.426-1.759-0.426
		c-0.615,0.015-1.198,0.167-1.748,0.459c-0.551,0.292-1.029,0.688-1.435,1.188c-0.406,0.501-0.728,1.08-0.963,1.737
		C109.14,22.366,109.022,23.069,109.022,23.816z"/>
	<path fill="#020304" d="M122.952,16.15c0-0.075,0.022-0.138,0.068-0.191c0.046-0.052,0.102-0.079,0.167-0.079h10.373
		c0.065,0,0.121,0.026,0.167,0.079c0.046,0.053,0.068,0.116,0.068,0.191v3.294c0,0.21-0.059,0.396-0.177,0.561l-3.104,4.64
		l4.44,6.613c0.04,0.074,0.043,0.145,0.01,0.213c-0.032,0.066-0.081,0.102-0.146,0.102h-2.495c-0.263,0-0.479-0.121-0.648-0.359
		l-4.303-6.389c-0.092-0.118-0.092-0.23,0-0.335l3.87-5.761h-5.775v12.575c0,0.178-0.086,0.27-0.256,0.27h-2.023
		c-0.065,0-0.121-0.027-0.167-0.08s-0.068-0.115-0.068-0.189V16.15z"/>
	<path fill="#020304" d="M136.565,16.195c0-0.075,0.023-0.138,0.069-0.19c0.046-0.052,0.102-0.078,0.167-0.078h8.487
		c0.157,0,0.235,0.089,0.235,0.269v2.309c0,0.18-0.078,0.27-0.235,0.27h-6.209v3.586h4.912c0.157,0,0.236,0.09,0.236,0.269v2.287
		c0,0.193-0.079,0.291-0.236,0.291h-4.912v3.564h6.817c0.079,0,0.135,0.037,0.168,0.111c0.032,0.076,0.022,0.143-0.03,0.203
		l-1.453,2.174c-0.171,0.238-0.387,0.357-0.648,0.357h-7.132c-0.065,0-0.121-0.025-0.167-0.078s-0.069-0.115-0.069-0.189V16.195z"/>
</g>
<g enable-background="new    ">
	<path fill="#884B97" d="M3.702,15.781c0-0.074,0.022-0.138,0.069-0.19c0.045-0.052,0.101-0.079,0.167-0.079h2.024
		c0.065,0,0.124,0.026,0.177,0.079c0.052,0.052,0.079,0.116,0.079,0.19v10.581l7.053-10.49c0.17-0.239,0.386-0.359,0.648-0.359
		h1.867c0.065,0,0.121,0.026,0.167,0.079s0.069,0.116,0.069,0.19v10.581l7.073-10.49c0.17-0.239,0.386-0.359,0.648-0.359h2.495
		c0.078,0,0.134,0.038,0.167,0.112c0.033,0.074,0.023,0.142-0.029,0.202L16.275,30.844c-0.17,0.238-0.386,0.359-0.648,0.359H13.76
		c-0.157,0-0.235-0.09-0.235-0.27v-10.58l-7.073,10.49c-0.17,0.238-0.387,0.359-0.648,0.359H3.937c-0.065,0-0.121-0.027-0.167-0.08
		c-0.046-0.053-0.069-0.115-0.069-0.189V15.781z"/>
	<path fill="#884B97" d="M27.944,15.826c0-0.075,0.023-0.138,0.069-0.19c0.046-0.053,0.102-0.079,0.167-0.079h8.487
		c0.157,0,0.235,0.09,0.235,0.27v2.308c0,0.181-0.078,0.27-0.235,0.27h-6.208v3.587h4.911c0.157,0,0.236,0.089,0.236,0.269v2.286
		c0,0.193-0.079,0.291-0.236,0.291h-4.911V28.4h6.817c0.079,0,0.134,0.037,0.167,0.111c0.032,0.076,0.022,0.143-0.03,0.203
		l-1.454,2.174c-0.17,0.238-0.386,0.359-0.648,0.359H28.18c-0.065,0-0.121-0.027-0.167-0.08c-0.046-0.051-0.069-0.115-0.069-0.189
		V15.826z"/>
	<path fill="#884B97" d="M39.575,15.557h2.024c0.17,0,0.255,0.09,0.255,0.27v15.152c0,0.178-0.085,0.27-0.255,0.27h-2.024
		c-0.066,0-0.121-0.027-0.167-0.08c-0.045-0.051-0.068-0.115-0.068-0.189V15.826c0-0.075,0.022-0.138,0.068-0.19
		C39.454,15.583,39.509,15.557,39.575,15.557z"/>
	<path fill="#884B97" d="M44.683,15.781c0-0.074,0.023-0.138,0.069-0.19c0.045-0.052,0.101-0.079,0.167-0.079h10.373
		c0.066,0,0.121,0.026,0.167,0.079c0.045,0.052,0.069,0.116,0.069,0.19v3.295c0,0.21-0.06,0.396-0.177,0.561l-3.104,4.64l4.44,6.613
		c0.039,0.074,0.042,0.145,0.01,0.213c-0.034,0.066-0.082,0.102-0.148,0.102h-2.495c-0.262,0-0.478-0.121-0.648-0.359l-4.302-6.388
		c-0.092-0.119-0.092-0.231,0-0.336l3.871-5.761h-5.776v12.575c0,0.18-0.085,0.27-0.256,0.27h-2.022
		c-0.066,0-0.122-0.027-0.167-0.08c-0.046-0.053-0.069-0.115-0.069-0.189V15.781z"/>
	<path fill="#884B97" d="M58.297,15.826c0-0.075,0.023-0.138,0.069-0.19c0.045-0.053,0.101-0.079,0.167-0.079h4.38
		c0.943,0,1.827,0.203,2.652,0.606c0.825,0.403,1.545,0.952,2.161,1.647c0.615,0.694,1.11,1.509,1.482,2.442
		c0.374,0.935,0.567,1.932,0.581,2.993c0.026,1.105-0.148,2.144-0.521,3.116c-0.374,0.971-0.88,1.818-1.522,2.543
		c-0.642,0.725-1.392,1.297-2.25,1.715c-0.858,0.42-1.772,0.629-2.741,0.629h-4.223c-0.066,0-0.122-0.027-0.167-0.08
		c-0.046-0.051-0.069-0.115-0.069-0.189V15.826z M60.812,28.4h2.102c0.603,0,1.169-0.131,1.7-0.393
		c0.53-0.262,0.995-0.619,1.395-1.076c0.4-0.455,0.714-0.986,0.943-1.59c0.229-0.605,0.344-1.252,0.344-1.939
		c0-0.687-0.115-1.333-0.344-1.938s-0.543-1.136-0.943-1.591c-0.4-0.456-0.864-0.815-1.395-1.076
		c-0.531-0.262-1.097-0.393-1.7-0.393h-2.102V28.4z"/>
	<path fill="#884B97" d="M69.397,30.934l10.098-15.018c0.171-0.238,0.387-0.359,0.648-0.359h2.495c0.078,0,0.134,0.038,0.167,0.112
		c0.032,0.075,0.023,0.149-0.029,0.224L72.678,30.889c-0.157,0.254-0.373,0.381-0.648,0.381h-2.496
		c-0.066,0-0.118-0.037-0.157-0.113C69.338,31.082,69.345,31.008,69.397,30.934z"/>
</g>
<g enable-background="new    ">
	<path fill="#FFFFFF" d="M84.121,20.152c0-0.702,0.128-1.352,0.384-1.95c0.255-0.598,0.602-1.113,1.04-1.546
		c0.439-0.434,0.95-0.777,1.533-1.031s1.201-0.381,1.856-0.381c1.021,0,1.909,0.206,2.661,0.616c0.754,0.412,1.32,0.885,1.7,1.423
		c0.092,0.135,0.085,0.255-0.02,0.359l-1.355,1.613c-0.053,0.06-0.114,0.089-0.187,0.089s-0.135-0.036-0.187-0.111
		c-0.118-0.149-0.266-0.298-0.443-0.448c-0.176-0.148-0.379-0.287-0.607-0.414c-0.23-0.128-0.476-0.229-0.737-0.304
		c-0.263-0.074-0.53-0.111-0.806-0.111c-0.328,0-0.625,0.056-0.895,0.168c-0.269,0.112-0.493,0.258-0.678,0.438
		c-0.183,0.179-0.327,0.388-0.432,0.627s-0.157,0.493-0.157,0.762c0,0.435,0.125,0.808,0.373,1.121
		c0.249,0.313,0.622,0.53,1.12,0.65l1.925,0.426c0.629,0.134,1.183,0.348,1.66,0.639c0.479,0.291,0.878,0.639,1.199,1.042
		c0.32,0.403,0.566,0.855,0.736,1.356s0.256,1.027,0.256,1.58c0,0.6-0.108,1.188-0.324,1.771c-0.216,0.582-0.538,1.105-0.963,1.568
		c-0.426,0.463-0.946,0.834-1.562,1.109c-0.616,0.277-1.323,0.416-2.122,0.416c-0.563,0-1.091-0.068-1.581-0.203
		c-0.491-0.135-0.937-0.309-1.337-0.525c-0.398-0.217-0.749-0.457-1.051-0.719c-0.302-0.26-0.55-0.518-0.746-0.773
		c-0.092-0.104-0.092-0.223,0-0.357l1.237-1.816c0.039-0.074,0.095-0.115,0.167-0.123s0.134,0.02,0.188,0.078
		c0.183,0.195,0.386,0.393,0.607,0.594c0.224,0.203,0.466,0.387,0.728,0.549c0.263,0.166,0.543,0.299,0.845,0.404
		s0.622,0.158,0.963,0.158c0.721,0,1.271-0.18,1.65-0.539c0.38-0.357,0.569-0.822,0.569-1.391c0-0.447-0.141-0.84-0.422-1.176
		c-0.282-0.336-0.698-0.563-1.248-0.683l-1.925-0.449c-1.101-0.253-1.979-0.77-2.633-1.546
		C84.448,22.333,84.121,21.347,84.121,20.152z"/>
	<path fill="#FFFFFF" d="M95.379,16.15c0-0.075,0.021-0.138,0.068-0.191c0.046-0.052,0.102-0.079,0.166-0.079h8.527
		c0.262,0,0.478,0.12,0.647,0.359l1.455,2.174c0.052,0.075,0.062,0.146,0.028,0.213c-0.032,0.067-0.088,0.102-0.167,0.102h-4.381
		v12.575c0,0.178-0.079,0.27-0.235,0.27h-2.023c-0.157,0-0.236-0.092-0.236-0.27V18.728h-3.615c-0.064,0-0.12-0.026-0.166-0.079
		c-0.047-0.052-0.068-0.114-0.068-0.189V16.15z"/>
	<path fill="#FFFFFF" d="M107.265,23.335c0-1.151,0.186-2.224,0.56-3.217c0.373-0.994,0.877-1.853,1.512-2.578
		c0.636-0.725,1.386-1.292,2.25-1.703s1.794-0.609,2.789-0.594c0.996,0.015,1.927,0.239,2.79,0.672
		c0.865,0.434,1.615,1.024,2.25,1.771c0.635,0.747,1.137,1.618,1.503,2.611c0.366,0.995,0.543,2.051,0.53,3.173
		c-0.013,1.135-0.209,2.196-0.59,3.182c-0.379,0.986-0.894,1.846-1.542,2.576c-0.648,0.734-1.404,1.305-2.269,1.717
		c-0.864,0.41-1.795,0.615-2.79,0.615c-0.981,0-1.902-0.213-2.76-0.639c-0.858-0.426-1.602-1.008-2.23-1.748
		s-1.12-1.611-1.474-2.611C107.441,25.562,107.265,24.486,107.265,23.335z M109.779,23.447c0,0.732,0.123,1.427,0.373,2.085
		c0.248,0.658,0.582,1.232,1.001,1.726c0.42,0.492,0.904,0.881,1.454,1.166c0.551,0.283,1.14,0.426,1.768,0.426
		c0.616-0.016,1.199-0.172,1.75-0.473c0.549-0.297,1.031-0.697,1.443-1.199c0.413-0.5,0.736-1.082,0.973-1.748
		c0.235-0.664,0.347-1.363,0.334-2.095c0-0.732-0.125-1.428-0.373-2.086c-0.249-0.656-0.583-1.229-1.003-1.714
		c-0.419-0.486-0.906-0.87-1.463-1.154c-0.557-0.283-1.143-0.426-1.759-0.426c-0.615,0.015-1.198,0.168-1.748,0.46
		c-0.551,0.29-1.028,0.687-1.435,1.188c-0.406,0.5-0.727,1.079-0.962,1.737C109.896,21.998,109.779,22.7,109.779,23.447z"/>
	<path fill="#FFFFFF" d="M123.707,15.781c0-0.074,0.023-0.138,0.069-0.19s0.101-0.079,0.167-0.079h10.374
		c0.064,0,0.119,0.026,0.166,0.079c0.046,0.052,0.068,0.116,0.068,0.19v3.295c0,0.21-0.059,0.396-0.176,0.561l-3.104,4.64
		l4.439,6.613c0.039,0.074,0.043,0.145,0.011,0.213c-0.033,0.066-0.082,0.102-0.148,0.102h-2.494c-0.263,0-0.479-0.121-0.648-0.359
		l-4.303-6.388c-0.092-0.119-0.092-0.231,0-0.336l3.87-5.761h-5.776v12.575c0,0.18-0.084,0.27-0.255,0.27h-2.023
		c-0.066,0-0.121-0.027-0.167-0.08s-0.069-0.115-0.069-0.189V15.781z"/>
	<path fill="#FFFFFF" d="M137.322,15.826c0-0.075,0.022-0.138,0.068-0.19s0.102-0.079,0.167-0.079h8.487
		c0.157,0,0.236,0.09,0.236,0.27v2.308c0,0.181-0.079,0.27-0.236,0.27h-6.208v3.587h4.911c0.157,0,0.236,0.089,0.236,0.269v2.286
		c0,0.193-0.079,0.291-0.236,0.291h-4.911V28.4h6.816c0.079,0,0.136,0.037,0.168,0.111c0.032,0.076,0.022,0.143-0.03,0.203
		l-1.453,2.174c-0.17,0.238-0.387,0.359-0.648,0.359h-7.132c-0.065,0-0.121-0.027-0.167-0.08c-0.046-0.051-0.068-0.115-0.068-0.189
		V15.826z"/>
</g>
</svg>
